<svg xmlns="http://www.w3.org/2000/svg" xmlns:xlink="http://www.w3.org/1999/xlink" x="0px" y="0px" width="64px" height="64px" viewBox="0 0 64 64"><g stroke-width="2" transform="translate(0, 0)"><line fill="none" stroke="#444444" stroke-width="2" stroke-linecap="square" stroke-miterlimit="10" x1="11.917" y1="52.083" x2="10.503" y2="53.497" stroke-linejoin="miter"></line><polyline data-cap="butt" data-color="color-2" fill="none" stroke="#444444" stroke-width="2" stroke-miterlimit="10" points="11.917,23.799   31.716,4 45.858,18.142 43,29 54.343,26.627 60,32.284 40.201,52.083 " stroke-linejoin="miter" stroke-linecap="butt"></polyline><path fill="none" stroke="#444444" stroke-width="2" stroke-linecap="square" stroke-miterlimit="10" d="M11.917,23.799  l-2.828,2.828c-2.343,2.343-2.343,6.142,0,8.485l5.657,5.657l-9.899,9.899c-2.343,2.343-2.343,6.142,0,8.485  c2.343,2.343,6.142,2.343,8.485,0l9.899-9.899l5.657,5.657c2.343,2.343,6.142,2.343,8.485,0l2.828-2.828L11.917,23.799z" stroke-linejoin="miter"></path></g></svg>